<svg width="31" height="31" fill="none" xmlns="http://www.w3.org/2000/svg"><path d="M26.63 12.72c0 1.65-.57 3.6-1.48 5.61-.9 2-2.14 4.05-3.45 5.87a35.67 35.67 0 01-3.84 4.57c-.59.58-1.1 1.02-1.54 1.32-.21.15-.4.26-.55.33a.77.77 0 01-.27.08.77.77 0 01-.27-.08 3.6 3.6 0 01-.55-.33c-.43-.3-.95-.74-1.54-1.32A35.67 35.67 0 019.3 24.2a35.62 35.62 0 01-3.45-5.87 14.28 14.28 0 01-1.47-5.61C4.38 5.92 9.4.5 15.5.5s11.13 5.43 11.13 12.22z" fill="#EAC17A" stroke="#fff"/><path d="M15.5 15.5a5 5 0 013.88-3.88 4.91 4.91 0 01-3.88-3.87 5 5 0 01-3.88 3.88c1.94.38 3.5 1.9 3.88 3.87z" fill="#fff"/></svg>