<?xml version="1.0" standalone="no"?>
<!DOCTYPE svg PUBLIC "-//W3C//DTD SVG 20010904//EN"
 "http://www.w3.org/TR/2001/REC-SVG-20010904/DTD/svg10.dtd">
<svg version="1.0" xmlns="http://www.w3.org/2000/svg"
 width="544.000000pt" height="544.000000pt" viewBox="0 0 544.000000 544.000000"
 preserveAspectRatio="xMidYMid meet">
<metadata>
Created by potrace 1.11, written by Peter Selinger 2001-2013
</metadata>
<g transform="translate(0.000000,544.000000) scale(0.100000,-0.100000)"
fill="#000000" stroke="none">
<path d="M2712 5268 c-2 -25 -10 -63 -12 -63 -1 0 -3 -15 -6 -34 -4 -32 -7
-50 -19 -103 -9 -44 -15 -73 -20 -103 -3 -16 -14 -75 -25 -130 -11 -55 -22
-111 -24 -125 -3 -14 -5 -25 -6 -25 -1 0 -3 -9 -5 -20 -32 -211 -110 -447
-215 -652 -75 -144 -159 -270 -275 -412 -37 -45 -210 -216 -254 -251 -24 -19
-48 -39 -55 -45 -32 -29 -126 -95 -135 -95 -5 0 -11 -4 -13 -8 -17 -43 -476
-255 -620 -287 -13 -2 -54 -12 -93 -21 -38 -8 -81 -17 -95 -20 -14 -2 -36 -7
-50 -10 -14 -3 -36 -7 -50 -9 -14 -2 -119 -22 -235 -44 -116 -22 -222 -42
-237 -45 -15 -2 -63 -12 -105 -20 -95 -19 -124 -24 -142 -25 -30 -2 -2 -11 79
-25 47 -9 96 -18 110 -21 14 -3 39 -7 55 -10 17 -3 50 -9 75 -14 25 -5 59 -12
75 -15 17 -2 39 -7 50 -9 11 -3 40 -8 65 -12 25 -4 54 -9 65 -11 11 -2 31 -6
45 -9 14 -2 50 -9 80 -15 51 -11 87 -17 135 -25 100 -16 336 -88 440 -134 171
-76 423 -224 492 -290 12 -12 25 -21 28 -21 15 0 236 -216 295 -289 19 -24 43
-53 53 -64 20 -23 124 -175 142 -207 6 -10 17 -25 24 -34 7 -9 10 -16 7 -16
-4 0 1 -12 12 -28 11 -15 36 -63 56 -107 21 -44 41 -88 46 -97 11 -19 42 -105
71 -192 19 -59 51 -182 70 -274 5 -26 12 -58 15 -72 16 -74 36 -168 40 -190 6
-32 27 -132 30 -145 2 -5 6 -26 9 -45 4 -19 11 -53 17 -75 5 -22 12 -51 14
-65 13 -90 20 -86 44 31 13 63 25 116 25 119 1 4 8 36 21 100 6 30 46 215 48
225 2 6 6 28 11 50 11 57 17 86 30 142 3 13 7 32 10 43 47 216 170 507 286
677 16 23 29 44 29 47 0 3 6 14 14 23 8 10 43 54 77 98 87 111 153 181 284
300 47 42 203 157 278 203 83 52 257 142 274 142 7 0 13 5 13 12 0 6 3 8 7 5
3 -4 12 -2 20 4 7 6 13 9 13 5 0 -4 13 0 29 8 38 20 281 96 321 101 8 1 65 11
125 23 61 12 193 37 295 57 102 19 196 37 210 40 13 2 40 7 60 10 20 3 46 8
58 10 12 3 30 7 40 9 9 2 36 7 60 11 48 8 49 14 6 20 -27 5 -68 12 -124 21
-14 3 -56 11 -95 19 -38 8 -81 16 -95 19 -14 3 -34 7 -45 9 -36 8 -110 21
-130 22 -11 1 -29 5 -40 8 -20 6 -175 35 -230 43 -16 2 -37 7 -47 10 -9 2 -27
7 -40 9 -50 10 -124 27 -138 33 -8 3 -19 7 -25 7 -5 1 -17 4 -25 7 -8 3 -49
17 -90 31 -41 14 -93 34 -115 43 -22 10 -42 18 -45 19 -18 4 -141 68 -224 117
-193 114 -404 291 -537 449 -74 88 -149 188 -149 199 0 5 -4 10 -9 10 -5 0
-13 9 -16 20 -3 11 -12 26 -19 32 -13 14 -41 64 -78 138 -13 25 -26 47 -30 48
-5 2 -8 8 -8 14 0 6 -13 39 -29 72 -26 55 -87 218 -96 256 -2 8 -11 42 -20 75
-9 33 -34 145 -56 248 -21 104 -41 198 -44 210 -16 74 -47 224 -61 295 -16 81
-28 103 -32 60z"/>
</g>
</svg>
